<svg width="198" height="75" viewBox="0 0 198 75" fill="none" xmlns="http://www.w3.org/2000/svg">
<path fill-rule="evenodd" clip-rule="evenodd" d="M41.246 10.123C41.4537 10.1879 41.8167 10.3512 42.0526 10.486C42.3376 10.6487 46.1368 14.3882 53.3777 21.633C65.183 33.4449 64.6796 32.9 64.933 34.1425C65.1341 35.1285 64.8757 36.2443 64.249 37.0964L63.9268 37.5346L50.7171 24.3241C43.4517 17.0583 37.5074 11.0837 37.5074 11.0471C37.5074 10.8902 38.4051 10.3378 38.9284 10.1727C39.5902 9.96386 40.6633 9.94092 41.246 10.123ZM33.1889 12.7323C33.4509 12.8028 33.8542 12.9674 34.0852 13.098C34.3631 13.2552 39.0987 17.9288 48.0947 26.9239C63.7043 42.532 62.2885 40.9533 62.2885 42.7513C62.2885 43.6809 62.2712 43.7755 61.9956 44.3577C61.7463 44.8839 61.4739 45.2073 60.1703 46.5246L58.6379 48.073L58.0433 47.5808C57.3183 46.9804 56.0818 46.3562 55.1185 46.1042C54.1275 45.845 52.5362 45.8457 51.5336 46.1058C50.0159 46.4995 48.5178 47.453 47.5482 48.6423C46.9702 49.3511 46.3449 50.6034 46.1028 51.537C45.8445 52.533 45.8445 54.1263 46.1028 55.1222C46.3519 56.083 46.9758 57.3203 47.5776 58.0473L48.0699 58.6419L46.5216 60.1744C45.2044 61.4782 44.881 61.7505 44.3548 61.9998C43.7726 62.2755 43.6781 62.2927 42.7485 62.2927C40.9497 62.2927 42.5353 63.7156 26.8808 48.0533C14.6822 35.8484 13.2255 34.3616 13.0006 33.8855C12.6471 33.137 12.53 32.37 12.6566 31.6311C12.8398 30.5615 13.0999 30.1758 14.7922 28.4627L16.3363 26.9L16.7718 27.2632C17.697 28.0346 18.6768 28.5458 19.8516 28.8703C20.7495 29.1183 22.63 29.0984 23.5647 28.8311C26.6808 27.9401 28.8535 25.2723 29.0521 22.0932C29.1715 20.1814 28.5831 18.3963 27.3237 16.85L26.9025 16.333L28.4631 14.7882C29.3426 13.9177 30.1888 13.1598 30.402 13.0518C31.2776 12.6083 32.2948 12.4917 33.1889 12.7323ZM35.5805 28.4563C34.4383 28.8161 33.7707 29.2303 32.8393 30.1568C32.1308 30.8616 31.9146 31.1451 31.6061 31.7733C31.0369 32.9323 30.8416 33.8356 30.899 35.0431C30.9333 35.7616 31.0099 36.2298 31.1804 36.7606C31.7767 38.6182 33.1125 41.4403 34.2856 43.3211C35.0233 44.5036 36.4716 46.4399 36.7167 46.571C37.4207 46.9478 38.0518 46.8254 38.6107 46.2039C40.4868 44.1171 43.1864 39.0688 43.931 36.2549C44.1353 35.483 44.1316 33.994 43.9235 33.2074C43.7141 32.4165 43.1588 31.2983 42.669 30.6816C41.8078 29.5973 40.4317 28.7166 39.0496 28.3652C38.1111 28.1266 36.492 28.1691 35.5805 28.4563ZM38.2813 32.3191C38.7155 32.4449 39.3974 32.9425 39.7218 33.3702C40.7453 34.7194 40.276 36.7135 38.7434 37.5273C38.4215 37.6982 38.2198 37.7317 37.5074 37.7326C36.7757 37.7336 36.5946 37.7024 36.2194 37.5108C35.6622 37.2262 35.0548 36.5518 34.8717 36.0143C34.7932 35.784 34.729 35.3067 34.729 34.9536C34.729 34.4146 34.7738 34.2222 35.0078 33.7538C35.5953 32.5779 37.0199 31.9535 38.2813 32.3191ZM24.3228 50.7205L37.5322 63.9312L37.0941 64.2534C35.9144 65.1213 34.3894 65.2414 33.1128 64.5671C32.713 64.3559 30.4713 62.1566 21.5424 53.2154C9.12449 40.7804 10.0882 41.8546 10.0115 40.3619C9.9795 39.7403 10.0096 39.4611 10.1613 38.9726C10.3335 38.4175 10.8831 37.5097 11.0468 37.5097C11.0834 37.5097 17.0576 43.4545 24.3228 50.7205Z" fill="black"/>
<path d="M103.2 31.98C102.56 30.8067 101.68 29.9133 100.56 29.3C99.44 28.6867 98.1333 28.38 96.64 28.38C94.9867 28.38 93.52 28.7533 92.24 29.5C90.96 30.2467 89.96 31.3133 89.24 32.7C88.52 34.0867 88.16 35.6867 88.16 37.5C88.16 39.3667 88.52 40.9933 89.24 42.38C89.9867 43.7667 91.0133 44.8333 92.32 45.58C93.6267 46.3267 95.1467 46.7 96.88 46.7C99.0133 46.7 100.76 46.14 102.12 45.02C103.48 43.8733 104.373 42.2867 104.8 40.26H95.2V35.98H110.32V40.86C109.947 42.8067 109.147 44.6067 107.92 46.26C106.693 47.9133 105.107 49.2467 103.16 50.26C101.24 51.2467 99.08 51.74 96.68 51.74C93.9867 51.74 91.5467 51.14 89.36 49.94C87.2 48.7133 85.4933 47.02 84.24 44.86C83.0133 42.7 82.4 40.2467 82.4 37.5C82.4 34.7533 83.0133 32.3 84.24 30.14C85.4933 27.9533 87.2 26.26 89.36 25.06C91.5467 23.8333 93.9733 23.22 96.64 23.22C99.7867 23.22 102.52 23.9933 104.84 25.54C107.16 27.06 108.76 29.2067 109.64 31.98H103.2ZM124.303 51.86C122.17 51.86 120.25 51.3933 118.543 50.46C116.836 49.5 115.49 48.1533 114.503 46.42C113.543 44.6867 113.063 42.6867 113.063 40.42C113.063 38.1533 113.556 36.1533 114.543 34.42C115.556 32.6867 116.93 31.3533 118.663 30.42C120.396 29.46 122.33 28.98 124.463 28.98C126.596 28.98 128.53 29.46 130.263 30.42C131.996 31.3533 133.356 32.6867 134.343 34.42C135.356 36.1533 135.863 38.1533 135.863 40.42C135.863 42.6867 135.343 44.6867 134.303 46.42C133.29 48.1533 131.903 49.5 130.143 50.46C128.41 51.3933 126.463 51.86 124.303 51.86ZM124.303 46.98C125.316 46.98 126.263 46.74 127.143 46.26C128.05 45.7533 128.77 45.0067 129.303 44.02C129.836 43.0333 130.103 41.8333 130.103 40.42C130.103 38.3133 129.543 36.7 128.423 35.58C127.33 34.4333 125.983 33.86 124.383 33.86C122.783 33.86 121.436 34.4333 120.343 35.58C119.276 36.7 118.743 38.3133 118.743 40.42C118.743 42.5267 119.263 44.1533 120.303 45.3C121.37 46.42 122.703 46.98 124.303 46.98ZM138.531 40.34C138.531 38.1 138.971 36.1133 139.851 34.38C140.758 32.6467 141.971 31.3133 143.491 30.38C145.038 29.4467 146.758 28.98 148.651 28.98C150.304 28.98 151.744 29.3133 152.971 29.98C154.224 30.6467 155.224 31.4867 155.971 32.5V29.34H161.611V51.5H155.971V48.26C155.251 49.3 154.251 50.1667 152.971 50.86C151.718 51.5267 150.264 51.86 148.611 51.86C146.744 51.86 145.038 51.38 143.491 50.42C141.971 49.46 140.758 48.1133 139.851 46.38C138.971 44.62 138.531 42.6067 138.531 40.34ZM155.971 40.42C155.971 39.06 155.704 37.9 155.171 36.94C154.638 35.9533 153.918 35.2067 153.011 34.7C152.104 34.1667 151.131 33.9 150.091 33.9C149.051 33.9 148.091 34.1533 147.211 34.66C146.331 35.1667 145.611 35.9133 145.051 36.9C144.518 37.86 144.251 39.0067 144.251 40.34C144.251 41.6733 144.518 42.8467 145.051 43.86C145.611 44.8467 146.331 45.6067 147.211 46.14C148.118 46.6733 149.078 46.94 150.091 46.94C151.131 46.94 152.104 46.6867 153.011 46.18C153.918 45.6467 154.638 44.9 155.171 43.94C155.704 42.9533 155.971 41.78 155.971 40.42ZM172.68 21.9V51.5H167.08V21.9H172.68ZM186.693 51.86C184.88 51.86 183.253 51.54 181.813 50.9C180.373 50.2333 179.226 49.34 178.373 48.22C177.546 47.1 177.093 45.86 177.013 44.5H182.653C182.76 45.3533 183.173 46.06 183.893 46.62C184.64 47.18 185.56 47.46 186.653 47.46C187.72 47.46 188.546 47.2467 189.133 46.82C189.746 46.3933 190.053 45.8467 190.053 45.18C190.053 44.46 189.68 43.9267 188.933 43.58C188.213 43.2067 187.053 42.8067 185.453 42.38C183.8 41.98 182.44 41.5667 181.373 41.14C180.333 40.7133 179.426 40.06 178.653 39.18C177.906 38.3 177.533 37.1133 177.533 35.62C177.533 34.3933 177.88 33.2733 178.573 32.26C179.293 31.2467 180.306 30.4467 181.613 29.86C182.946 29.2733 184.506 28.98 186.293 28.98C188.933 28.98 191.04 29.6467 192.613 30.98C194.186 32.2867 195.053 34.06 195.213 36.3H189.853C189.773 35.42 189.4 34.7267 188.733 34.22C188.093 33.6867 187.226 33.42 186.133 33.42C185.12 33.42 184.333 33.6067 183.773 33.98C183.24 34.3533 182.973 34.8733 182.973 35.54C182.973 36.2867 183.346 36.86 184.093 37.26C184.84 37.6333 186 38.02 187.573 38.42C189.173 38.82 190.493 39.2333 191.533 39.66C192.573 40.0867 193.466 40.7533 194.213 41.66C194.986 42.54 195.386 43.7133 195.413 45.18C195.413 46.46 195.053 47.6067 194.333 48.62C193.64 49.6333 192.626 50.4333 191.293 51.02C189.986 51.58 188.453 51.86 186.693 51.86Z" fill="black"/>
</svg>
