<svg width="40" height="41" viewBox="0 0 40 41" fill="none" xmlns="http://www.w3.org/2000/svg">
<path fill-rule="evenodd" clip-rule="evenodd" d="M22.7243 0.58949C22.8754 0.636684 23.1394 0.755454 23.311 0.853429C23.5182 0.971807 26.2813 3.69144 31.5474 8.96038C40.1331 17.5508 39.767 17.1546 39.9513 18.0582C40.0975 18.7753 39.9096 19.5868 39.4538 20.2065L39.2195 20.5251L29.6124 10.9175C24.3285 5.63334 20.0054 1.28816 20.0054 1.26156C20.0054 1.14742 20.6582 0.745676 21.0388 0.625603C21.5201 0.473719 22.3006 0.457031 22.7243 0.58949ZM16.8647 2.48713C17.0552 2.53843 17.3485 2.65811 17.5165 2.75309C17.7186 2.86742 21.1627 6.26643 27.7052 12.8083C39.0577 24.1597 38.028 23.0115 38.028 24.3191C38.028 24.9952 38.0155 25.064 37.815 25.4874C37.6337 25.8701 37.4356 26.1053 36.4875 27.0634L35.373 28.1895L34.9406 27.8315C34.4133 27.3949 33.514 26.9409 32.8135 26.7576C32.0928 26.5691 30.9354 26.5696 30.2062 26.7588C29.1024 27.0451 28.0129 27.7385 27.3077 28.6035C26.8874 29.119 26.4327 30.0297 26.2566 30.7087C26.0687 31.4331 26.0687 32.5918 26.2566 33.3162C26.4378 34.0149 26.8915 34.9148 27.3292 35.4435L27.6872 35.8759L26.5612 36.9905C25.6032 37.9387 25.368 38.1368 24.9853 38.318C24.5619 38.5186 24.4932 38.5311 23.8171 38.5311C22.5088 38.5311 23.662 39.5659 12.277 28.1751C3.40521 19.2989 2.34582 18.2175 2.18228 17.8713C1.92514 17.3269 1.84002 16.7691 1.93205 16.2317C2.06528 15.4538 2.25444 15.1733 3.48526 13.9274L4.6082 12.7909L4.92498 13.0551C5.59784 13.616 6.31041 13.9879 7.1648 14.2238C7.81778 14.4042 9.18542 14.3897 9.86526 14.1954C12.1315 13.5473 13.7116 11.6071 13.856 9.29505C13.9429 7.90462 13.5149 6.60637 12.599 5.48185L12.2927 5.10579L13.4277 3.9823C14.0674 3.34921 14.6828 2.79806 14.8378 2.71951C15.4746 2.39697 16.2144 2.31217 16.8647 2.48713ZM18.604 13.9227C17.7733 14.1845 17.2878 14.4857 16.6104 15.1595C16.0951 15.6721 15.9379 15.8783 15.7135 16.3352C15.2995 17.178 15.1575 17.835 15.1993 18.7132C15.2242 19.2357 15.2799 19.5762 15.4039 19.9623C15.8376 21.3132 16.8091 23.3657 17.6622 24.7335C18.1987 25.5936 19.2521 27.0017 19.4303 27.0971C19.9423 27.3711 20.4013 27.2821 20.8077 26.8301C22.1722 25.3124 24.1356 21.6409 24.6771 19.5945C24.8256 19.0331 24.823 17.9501 24.6716 17.3781C24.5194 16.8029 24.1155 15.9897 23.7593 15.5412C23.133 14.7526 22.1322 14.112 21.127 13.8565C20.4444 13.683 19.2669 13.7139 18.604 13.9227ZM20.5682 16.7321C20.884 16.8236 21.3799 17.1854 21.6159 17.4965C22.3602 18.4778 22.0189 19.928 20.9043 20.5199C20.6702 20.6442 20.5235 20.6685 20.0054 20.6692C19.4732 20.6699 19.3415 20.6472 19.0686 20.5079C18.6634 20.3009 18.2217 19.8104 18.0885 19.4195C18.0314 19.252 17.9847 18.9049 17.9847 18.6481C17.9847 18.2561 18.0173 18.1161 18.1875 17.7755C18.6148 16.9203 19.6508 16.4662 20.5682 16.7321ZM10.4166 30.1149L20.0234 39.7227L19.7048 39.957C18.8468 40.5882 17.7377 40.6756 16.8093 40.1852C16.5186 40.0316 14.8882 38.4321 8.39451 31.9294C-0.636742 22.8857 0.0641556 23.667 0.00836182 22.5814C-0.0149078 22.1293 0.00699234 21.9262 0.117279 21.571C0.242558 21.1673 0.642246 20.5071 0.761333 20.5071C0.78793 20.5071 5.13277 24.8306 10.4166 30.1149Z" fill="#0C0C0C"/>
</svg>
