<svg width="1920" height="420" viewBox="0 0 1920 420" fill="none" xmlns="http://www.w3.org/2000/svg">
<path d="M237.753 143.8C227.353 124.733 213.053 110.217 194.853 100.25C176.653 90.2833 155.42 85.3 131.153 85.3C104.286 85.3 80.4529 91.3667 59.6529 103.5C38.8529 115.633 22.6029 132.967 10.9029 155.5C-0.797065 178.033 -6.64707 204.033 -6.64707 233.5C-6.64707 263.833 -0.797065 290.267 10.9029 312.8C23.0363 335.333 39.7196 352.667 60.9529 364.8C82.1863 376.933 106.886 383 135.053 383C169.72 383 198.103 373.9 220.203 355.7C242.303 337.067 256.82 311.283 263.753 278.35H107.753V208.8H353.453V288.1C347.386 319.733 334.386 348.983 314.453 375.85C294.52 402.717 268.736 424.383 237.103 440.85C205.903 456.883 170.803 464.9 131.803 464.9C88.0363 464.9 48.3863 455.15 12.8529 435.65C-22.2471 415.717 -49.9804 388.2 -70.3471 353.1C-90.2804 318 -100.247 278.133 -100.247 233.5C-100.247 188.867 -90.2804 149 -70.3471 113.9C-49.9804 78.3666 -22.2471 50.85 12.8529 31.35C48.3863 11.4167 87.8196 1.44999 131.153 1.44999C182.286 1.44999 226.703 14.0166 264.403 39.15C302.103 63.85 328.103 98.7333 342.403 143.8H237.753ZM631.379 465.55C588.912 465.55 549.912 455.583 514.379 435.65C478.845 415.717 450.679 388.2 429.879 353.1C409.079 317.567 398.679 277.483 398.679 232.85C398.679 188.65 409.079 149 429.879 113.9C450.679 78.3666 478.845 50.6333 514.379 30.7C549.912 10.7667 588.912 0.799997 631.379 0.799997C674.279 0.799997 713.279 10.7667 748.379 30.7C783.912 50.6333 811.862 78.3666 832.229 113.9C853.029 149 863.429 188.65 863.429 232.85C863.429 277.483 853.029 317.567 832.229 353.1C811.862 388.2 783.912 415.717 748.379 435.65C712.845 455.583 673.845 465.55 631.379 465.55ZM631.379 384.3C658.679 384.3 682.729 378.233 703.529 366.1C724.329 353.533 740.579 335.767 752.279 312.8C763.979 289.833 769.829 263.183 769.829 232.85C769.829 202.517 763.979 176.083 752.279 153.55C740.579 130.583 724.329 113.033 703.529 100.9C682.729 88.7667 658.679 82.7 631.379 82.7C604.079 82.7 579.812 88.7667 558.579 100.9C537.779 113.033 521.529 130.583 509.829 153.55C498.129 176.083 492.279 202.517 492.279 232.85C492.279 263.183 498.129 289.833 509.829 312.8C521.529 335.767 537.779 353.533 558.579 366.1C579.812 378.233 604.079 384.3 631.379 384.3ZM1209.33 374.55H1028.63L998.73 461H903.18L1066.33 6.64996H1172.28L1335.43 461H1239.23L1209.33 374.55ZM1184.63 301.75L1118.98 111.95L1053.33 301.75H1184.63ZM1487.41 388.85H1636.91V461H1396.41V7.29999H1487.41V388.85ZM1851.4 465.55C1819.77 465.55 1791.17 460.133 1765.6 449.3C1740.47 438.467 1720.54 422.867 1705.8 402.5C1691.07 382.133 1683.49 358.083 1683.05 330.35H1780.55C1781.85 348.983 1788.35 363.717 1800.05 374.55C1812.19 385.383 1828.65 390.8 1849.45 390.8C1870.69 390.8 1887.37 385.817 1899.5 375.85C1911.64 365.45 1917.7 352.017 1917.7 335.55C1917.7 322.117 1913.59 311.067 1905.35 302.4C1897.12 293.733 1886.72 287.017 1874.15 282.25C1862.02 277.05 1845.12 271.417 1823.45 265.35C1793.99 256.683 1769.94 248.233 1751.3 240C1733.1 231.333 1717.29 218.55 1703.85 201.65C1690.85 184.317 1684.35 161.35 1684.35 132.75C1684.35 105.883 1691.07 82.4833 1704.5 62.55C1717.94 42.6166 1736.79 27.45 1761.05 17.05C1785.32 6.21666 1813.05 0.799997 1844.25 0.799997C1891.05 0.799997 1928.97 12.2833 1958 35.25C1987.47 57.7833 2003.72 89.4166 2006.75 130.15H1906.65C1905.79 114.55 1899.07 101.767 1886.5 91.8C1874.37 81.4 1858.12 76.2 1837.75 76.2C1819.99 76.2 1805.69 80.75 1794.85 89.85C1784.45 98.95 1779.25 112.167 1779.25 129.5C1779.25 141.633 1783.15 151.817 1790.95 160.05C1799.19 167.85 1809.15 174.35 1820.85 179.55C1832.99 184.317 1849.89 189.95 1871.55 196.45C1901.02 205.117 1925.07 213.783 1943.7 222.45C1962.34 231.117 1978.37 244.117 1991.8 261.45C2005.24 278.783 2011.95 301.533 2011.95 329.7C2011.95 353.967 2005.67 376.5 1993.1 397.3C1980.54 418.1 1962.12 434.783 1937.85 447.35C1913.59 459.483 1884.77 465.55 1851.4 465.55Z" fill="#F8F8F8"/>
</svg>
