<svg width="49" height="48" viewBox="0 0 49 48" fill="none" xmlns="http://www.w3.org/2000/svg">
<g clip-path="url(#clip0_4820_2319)">
<path d="M33.8333 12H15.1667C13.7 12 12.5 13.2 12.5 14.6667V33.3333C12.5 34.8 13.7 36 15.1667 36H33.8333C35.3 36 36.5 34.8 36.5 33.3333V14.6667C36.5 13.2 35.3 12 33.8333 12ZM33.8333 33.3333H15.1667V14.6667H33.8333V33.3333Z" fill="#323232"/>
<path d="M20.4997 24H17.833V30.6667H20.4997V24Z" fill="#323232"/>
<path d="M31.1667 17.3333H28.5V30.6666H31.1667V17.3333Z" fill="#323232"/>
<path d="M25.8337 26.6667H23.167V30.6667H25.8337V26.6667Z" fill="#323232"/>
<path d="M25.8337 21.3333H23.167V23.9999H25.8337V21.3333Z" fill="#323232"/>
</g>
<defs>
<clipPath id="clip0_4820_2319">
<rect width="32" height="32" fill="white" transform="translate(8.5 8)"/>
</clipPath>
</defs>
</svg>
