<svg width="49" height="48" viewBox="0 0 49 48" fill="none" xmlns="http://www.w3.org/2000/svg">
<g clip-path="url(#clip0_4820_2325)">
<path d="M37.047 23.4401L25.047 11.4401C24.567 10.9601 23.9003 10.6667 23.167 10.6667H13.8337C12.367 10.6667 11.167 11.8667 11.167 13.3334V22.6667C11.167 23.4001 11.4603 24.0667 11.9537 24.5601L23.9537 36.5601C24.4337 37.0401 25.1003 37.3334 25.8337 37.3334C26.567 37.3334 27.2337 37.0401 27.7137 36.5467L37.047 27.2134C37.5403 26.7334 37.8337 26.0667 37.8337 25.3334C37.8337 24.6001 37.527 23.9201 37.047 23.4401ZM25.8337 34.6801L13.8337 22.6667V13.3334H23.167V13.3201L35.167 25.3201L25.8337 34.6801Z" fill="#323232"/>
<path d="M17.167 18.6667C18.2716 18.6667 19.167 17.7713 19.167 16.6667C19.167 15.5622 18.2716 14.6667 17.167 14.6667C16.0624 14.6667 15.167 15.5622 15.167 16.6667C15.167 17.7713 16.0624 18.6667 17.167 18.6667Z" fill="#323232"/>
<path d="M20.3662 24.7333C20.3662 25.4933 20.6729 26.16 21.1662 26.6667L25.8329 31.3333L30.4995 26.6667C30.9929 26.1733 31.2995 25.48 31.2995 24.7333C31.2995 23.2267 30.0729 22 28.5662 22C27.8062 22 27.1262 22.3067 26.6329 22.8L25.8329 23.6L25.0329 22.8133C24.5395 22.3067 23.8462 22 23.0995 22C21.5929 22 20.3662 23.2267 20.3662 24.7333Z" fill="#323232"/>
</g>
<defs>
<clipPath id="clip0_4820_2325">
<rect width="32" height="32" fill="white" transform="translate(8.5 8)"/>
</clipPath>
</defs>
</svg>
