<svg width="18" height="18" viewBox="0 0 18 18" fill="none" xmlns="http://www.w3.org/2000/svg">
<path d="M8.92031 4.34441C6.38682 4.34441 4.34218 6.38906 4.34218 8.92254C4.34218 11.456 6.38682 13.5007 8.92031 13.5007C11.4538 13.5007 13.4984 11.456 13.4984 8.92254C13.4984 6.38906 11.4538 4.34441 8.92031 4.34441ZM8.92031 11.898C7.28191 11.898 5.94486 10.5609 5.94486 8.92254C5.94486 7.28415 7.28191 5.94709 8.92031 5.94709C10.5587 5.94709 11.8958 7.28415 11.8958 8.92254C11.8958 10.5609 10.5587 11.898 8.92031 11.898ZM13.6859 3.08995C13.0944 3.08995 12.6167 3.56763 12.6167 4.15915C12.6167 4.75066 13.0944 5.22834 13.6859 5.22834C14.2774 5.22834 14.7551 4.7529 14.7551 4.15915C14.7553 4.01869 14.7278 3.87957 14.6741 3.74977C14.6204 3.61997 14.5417 3.50204 14.4424 3.40272C14.343 3.3034 14.2251 3.22465 14.0953 3.17098C13.9655 3.11731 13.8264 3.08977 13.6859 3.08995ZM17.8444 8.92254C17.8444 7.6904 17.8556 6.46941 17.7864 5.2395C17.7172 3.81093 17.3913 2.54307 16.3466 1.49843C15.2998 0.451557 14.0341 0.127896 12.6056 0.0586996C11.3734 -0.0104968 10.1524 0.000663937 8.92254 0.000663937C7.6904 0.000663937 6.46941 -0.0104968 5.2395 0.0586996C3.81093 0.127896 2.54307 0.453789 1.49843 1.49843C0.451557 2.54531 0.127896 3.81093 0.0586996 5.2395C-0.0104968 6.47165 0.000663923 7.69263 0.000663943 8.92254C0.000663962 10.1524 -0.0104968 11.3757 0.0586996 12.6056C0.127896 14.0341 0.453789 15.302 1.49843 16.3466C2.54531 17.3935 3.81093 17.7172 5.2395 17.7864C6.47165 17.8556 7.69263 17.8444 8.92254 17.8444C10.1547 17.8444 11.3757 17.8556 12.6056 17.7864C14.0341 17.7172 15.302 17.3913 16.3466 16.3466C17.3935 15.2998 17.7172 14.0341 17.7864 12.6056C17.8578 11.3757 17.8444 10.1547 17.8444 8.92254ZM15.8801 14.1859C15.7172 14.5922 15.5208 14.8958 15.206 15.2083C14.8913 15.523 14.59 15.7194 14.1837 15.8824C13.0096 16.3489 10.2216 16.244 8.92031 16.244C7.61897 16.244 4.82879 16.3489 3.65468 15.8846C3.24843 15.7216 2.94486 15.5252 2.63236 15.2105C2.31763 14.8958 2.1212 14.5944 1.95825 14.1882C1.49397 13.0118 1.59888 10.2239 1.59888 8.92254C1.59888 7.6212 1.49397 4.83102 1.95825 3.65691C2.1212 3.25066 2.31763 2.94709 2.63236 2.63459C2.94709 2.32209 3.24843 2.12343 3.65468 1.96049C4.82879 1.4962 7.61897 1.60111 8.92031 1.60111C10.2216 1.60111 13.0118 1.4962 14.1859 1.96049C14.5922 2.12343 14.8958 2.31986 15.2083 2.63459C15.523 2.94932 15.7194 3.25066 15.8824 3.65691C16.3466 4.83102 16.2417 7.6212 16.2417 8.92254C16.2417 10.2239 16.3466 13.0118 15.8801 14.1859Z" fill="#0C0C0C"/>
</svg>
