<svg width="16" height="11" viewBox="0 0 16 11" fill="none" xmlns="http://www.w3.org/2000/svg">
<path d="M14.2616 7.59291C15.5467 9.03157 15.8121 9.72092 15.8535 9.81084C16.3842 10.8699 15.2731 10.9498 15.2731 10.9498L13.134 10.9897C13.134 10.9897 12.6696 11.0996 12.0727 10.6001C11.2684 9.94072 10.4973 8.21233 9.92519 8.44212C9.3365 8.6719 9.35309 10.2205 9.35309 10.2205C9.35309 10.2205 9.35309 10.4403 9.22042 10.6101C9.07118 10.7999 8.78098 10.73 8.78098 10.73H7.82747C7.82747 10.73 5.71317 10.9897 3.86419 8.66191C1.8328 6.12428 0.0418627 1.12895 0.0418627 1.12895C0.0418627 1.12895 -0.0576339 0.829226 0.0501541 0.659384C0.174525 0.499534 0.522763 0.499534 0.522763 0.499534H2.81118C2.81118 0.499534 3.03505 0.499534 3.17601 0.659384C3.30038 0.769282 3.375 0.999068 3.375 0.999068C3.375 0.999068 3.73982 2.10803 4.2373 3.12708C5.19081 5.11522 5.63025 5.54482 5.93704 5.33502C6.43452 5.02531 6.29357 2.52764 6.29357 2.52764C6.29357 2.52764 6.30186 1.61849 6.05312 1.21886C5.86241 0.909151 5.49759 0.809244 5.34006 0.789263C5.20739 0.769282 5.42297 0.409618 5.69659 0.239777C6.11115 5.00212e-07 6.83251 0 7.69481 0C8.36641 0 8.55711 0.0599439 8.81415 0.129879C9.61012 0.359664 9.3365 1.24883 9.3365 3.36686C9.3365 4.05621 9.25359 4.99534 9.64328 5.32503C9.8174 5.4649 10.2486 5.34501 11.3264 3.15705C11.8239 2.11802 12.2053 0.88917 12.2053 0.88917C12.2053 0.88917 12.2882 0.679366 12.4126 0.579459C12.5453 0.499534 12.7277 0.499534 12.7277 0.499534H15.1322C15.1322 0.499534 15.8618 0.399627 15.9779 0.789263C16.1023 1.19888 15.7043 2.16798 14.7176 3.73651C13.1091 6.33409 12.9267 6.09431 14.2616 7.59291Z" fill="#0C0C0C"/>
</svg>
