<svg width="950" height="950" viewBox="0 0 950 950" fill="none" xmlns="http://www.w3.org/2000/svg">
<path fill-rule="evenodd" clip-rule="evenodd" d="M539.703 2.12538C543.291 3.24626 549.561 6.06703 553.635 8.39393C558.558 11.2054 624.182 75.7967 749.251 200.934C953.16 404.957 944.466 395.546 948.843 417.006C952.316 434.038 947.853 453.311 937.028 468.029L931.463 475.597L703.295 247.416C577.802 121.917 475.127 18.7187 475.127 18.087C475.127 15.3762 490.633 5.8348 499.672 2.98307C511.103 -0.624177 529.639 -1.02051 539.703 2.12538ZM400.536 47.1942C405.061 48.4127 412.027 51.2551 416.016 53.5108C420.817 56.2263 502.615 136.953 657.999 292.323C927.62 561.917 903.164 534.647 903.164 565.704C903.164 581.761 902.867 583.395 898.105 593.452C893.8 602.541 889.095 608.127 866.577 630.88L840.109 657.625L829.839 649.122C817.315 638.753 795.958 627.971 779.32 623.618C762.203 619.14 734.716 619.153 717.398 623.646C691.183 630.447 665.307 646.915 648.559 667.457C638.576 679.7 627.776 701.331 623.593 717.457C619.132 734.66 619.132 762.181 623.593 779.384C627.897 795.979 638.673 817.351 649.068 829.907L657.57 840.178L630.828 866.648C608.076 889.168 602.49 893.873 593.402 898.178C583.346 902.941 581.712 903.238 565.656 903.238C534.585 903.238 561.973 927.815 291.578 657.284C80.8738 446.473 55.7133 420.792 51.8292 412.568C45.7222 399.639 43.7004 386.391 45.8863 373.628C49.0505 355.154 53.543 348.49 82.7749 318.902L109.445 291.909L116.968 298.182C132.949 311.506 149.872 320.337 170.164 325.941C185.672 330.225 218.154 329.881 234.3 325.265C288.123 309.874 325.65 263.794 329.081 208.882C331.145 175.86 320.98 145.026 299.227 118.319L291.952 109.387L318.909 82.7047C334.1 67.6688 348.716 54.579 352.398 52.7135C367.522 45.0531 385.093 43.0389 400.536 47.1942ZM441.844 318.79C422.116 325.006 410.584 332.16 394.497 348.164C382.26 360.337 378.524 365.234 373.196 376.085C363.364 396.103 359.991 411.705 360.983 432.562C361.575 444.973 362.898 453.06 365.843 462.228C376.143 494.314 399.216 543.06 419.478 575.545C432.22 595.972 457.237 629.416 461.47 631.681C473.63 638.189 484.532 636.076 494.184 625.341C526.589 589.295 573.22 502.097 586.081 453.494C589.609 440.161 589.546 414.441 585.951 400.856C582.335 387.195 572.743 367.88 564.283 357.228C549.408 338.498 525.639 323.286 501.766 317.217C485.555 313.096 457.589 313.83 441.844 318.79ZM488.495 385.512C495.995 387.685 507.773 396.279 513.377 403.667C531.055 426.972 522.95 461.414 496.477 475.472C490.918 478.424 487.433 479.003 475.127 479.018C462.489 479.035 459.361 478.497 452.88 475.187C443.256 470.271 432.765 458.623 429.602 449.338C428.246 445.36 427.138 437.116 427.138 431.017C427.138 421.707 427.91 418.383 431.952 410.293C442.101 389.981 466.708 379.197 488.495 385.512ZM247.393 703.353L475.556 931.539L467.989 937.104C447.612 952.095 421.271 954.17 399.222 942.523C392.316 938.875 353.594 900.886 199.37 746.448C-15.1226 531.661 1.52371 550.216 0.198574 524.433C-0.354081 513.696 0.166096 508.873 2.7854 500.436C5.76076 490.848 15.2534 475.168 18.0817 475.168C18.7133 475.168 121.903 577.851 247.393 703.353Z" fill="#475467"/>
</svg>
