<svg width="20" height="20" viewBox="0 0 20 20" fill="none" xmlns="http://www.w3.org/2000/svg">
<g clip-path="url(#clip0_4687_168)">
<path d="M9.9013 7.61675C10.968 7.66675 11.243 8.57508 11.2596 9.00008H12.7513C12.6846 7.35008 11.5096 6.34175 9.8763 6.34175C8.03464 6.34175 6.66797 7.50008 6.66797 10.1167C6.66797 11.7334 7.44297 13.6501 9.86797 13.6501C11.718 13.6501 12.7096 12.2751 12.7346 11.1917H11.243C11.218 11.6834 10.868 12.3417 9.88463 12.3917C8.79297 12.3584 8.33464 11.5084 8.33464 10.1167C8.33464 7.70841 9.4013 7.63341 9.9013 7.61675ZM10.0013 1.66675C5.4013 1.66675 1.66797 5.40008 1.66797 10.0001C1.66797 14.6001 5.4013 18.3334 10.0013 18.3334C14.6013 18.3334 18.3346 14.6001 18.3346 10.0001C18.3346 5.40008 14.6013 1.66675 10.0013 1.66675ZM10.0013 16.6667C6.3263 16.6667 3.33464 13.6751 3.33464 10.0001C3.33464 6.32508 6.3263 3.33341 10.0013 3.33341C13.6763 3.33341 16.668 6.32508 16.668 10.0001C16.668 13.6751 13.6763 16.6667 10.0013 16.6667Z" fill="black"/>
</g>
<defs>
<clipPath id="clip0_4687_168">
<rect width="20" height="20" fill="white"/>
</clipPath>
</defs>
</svg>
