<svg width="20" height="20" viewBox="0 0 20 20" fill="none" xmlns="http://www.w3.org/2000/svg">
<path d="M10.2543 5.67779C7.72081 5.67779 5.67617 7.72243 5.67617 10.2559C5.67617 12.7894 7.72081 14.834 10.2543 14.834C12.7878 14.834 14.8324 12.7894 14.8324 10.2559C14.8324 7.72243 12.7878 5.67779 10.2543 5.67779ZM10.2543 13.2314C8.6159 13.2314 7.27884 11.8943 7.27884 10.2559C7.27884 8.61752 8.6159 7.28047 10.2543 7.28047C11.8927 7.28047 13.2297 8.61752 13.2297 10.2559C13.2297 11.8943 11.8927 13.2314 10.2543 13.2314ZM15.0199 4.42332C14.4284 4.42332 13.9507 4.901 13.9507 5.49252C13.9507 6.08404 14.4284 6.56172 15.0199 6.56172C15.6114 6.56172 16.0891 6.08627 16.0891 5.49252C16.0893 5.35206 16.0618 5.21295 16.0081 5.08315C15.9544 4.95335 15.8757 4.83541 15.7763 4.73609C15.677 4.63677 15.5591 4.55802 15.4293 4.50435C15.2995 4.45068 15.1604 4.42315 15.0199 4.42332ZM19.1784 10.2559C19.1784 9.02377 19.1896 7.80279 19.1204 6.57288C19.0512 5.14431 18.7253 3.87645 17.6806 2.83181C16.6338 1.78493 15.3681 1.46127 13.9396 1.39207C12.7074 1.32288 11.4864 1.33404 10.2565 1.33404C9.02438 1.33404 7.8034 1.32288 6.57349 1.39207C5.14492 1.46127 3.87706 1.78716 2.83242 2.83181C1.78554 3.87868 1.46188 5.14431 1.39268 6.57288C1.32349 7.80502 1.33465 9.026 1.33465 10.2559C1.33465 11.4858 1.32349 12.709 1.39268 13.9389C1.46188 15.3675 1.78777 16.6354 2.83242 17.68C3.87929 18.7269 5.14492 19.0506 6.57349 19.1198C7.80563 19.1889 9.02661 19.1778 10.2565 19.1778C11.4887 19.1778 12.7096 19.1889 13.9396 19.1198C15.3681 19.0506 16.636 18.7247 17.6806 17.68C18.7275 16.6331 19.0512 15.3675 19.1204 13.9389C19.1918 12.709 19.1784 11.4881 19.1784 10.2559ZM17.2141 15.5193C17.0512 15.9256 16.8547 16.2291 16.54 16.5416C16.2253 16.8564 15.9239 17.0528 15.5177 17.2157C14.3436 17.6823 11.5556 17.5773 10.2543 17.5773C8.95295 17.5773 6.16277 17.6823 4.98867 17.218C4.58242 17.055 4.27884 16.8586 3.96634 16.5439C3.65161 16.2291 3.45518 15.9278 3.29224 15.5215C2.82795 14.3452 2.93286 11.5573 2.93286 10.2559C2.93286 8.95457 2.82795 6.16439 3.29224 4.99029C3.45518 4.58404 3.65161 4.28047 3.96634 3.96797C4.28108 3.65547 4.58242 3.45681 4.98867 3.29386C6.16277 2.82957 8.95295 2.93448 10.2543 2.93448C11.5556 2.93448 14.3458 2.82957 15.5199 3.29386C15.9262 3.45681 16.2297 3.65323 16.5422 3.96797C16.857 4.2827 17.0534 4.58404 17.2163 4.99029C17.6806 6.16439 17.5757 8.95457 17.5757 10.2559C17.5757 11.5573 17.6806 14.3452 17.2141 15.5193Z" fill="white"/>
</svg>
