<svg width="24" height="24" viewBox="0 0 24 24" fill="none" xmlns="http://www.w3.org/2000/svg">
<path fill-rule="evenodd" clip-rule="evenodd" d="M13.6346 0.0546662C13.7253 0.0829809 13.8836 0.154237 13.9866 0.213017C14.1109 0.284039 15.7688 1.91569 18.9284 5.07681C24.0798 10.2307 23.8602 9.99294 23.9708 10.5351C24.0585 10.9653 23.9458 11.4522 23.6723 11.824L23.5317 12.0151L17.7675 6.25101C14.5971 3.08074 12.0032 0.473833 12.0032 0.457877C12.0032 0.389398 12.3949 0.148371 12.6233 0.0763324C12.9121 -0.0147909 13.3804 -0.0248027 13.6346 0.0546662ZM10.1188 1.19316C10.2331 1.22394 10.4091 1.29574 10.5099 1.35272C10.6312 1.42132 12.6976 3.46057 16.6231 7.3854C23.4346 14.1957 22.8168 13.5068 22.8168 14.2913C22.8168 14.697 22.8093 14.7382 22.689 14.9923C22.5802 15.2219 22.4614 15.363 21.8925 15.9378L21.2238 16.6134L20.9644 16.3986C20.648 16.1366 20.1084 15.8643 19.6881 15.7543C19.2557 15.6412 18.5612 15.6415 18.1237 15.755C17.4615 15.9268 16.8078 16.3428 16.3846 16.8618C16.1324 17.171 15.8596 17.7175 15.7539 18.1248C15.6412 18.5594 15.6412 19.2546 15.7539 19.6892C15.8627 20.1084 16.1349 20.6483 16.3975 20.9654L16.6123 21.2249L15.9367 21.8936C15.3619 22.4624 15.2208 22.5813 14.9912 22.69C14.7372 22.8103 14.6959 22.8179 14.2903 22.8179C13.5053 22.8179 14.1972 23.4387 7.36618 16.6048C2.04313 11.2794 1.40749 10.6307 1.30937 10.4229C1.15509 10.0963 1.10401 9.76168 1.15923 9.43927C1.23917 8.97259 1.35267 8.80426 2.09116 8.05682L2.76492 7.37496L2.95499 7.53343C3.35871 7.87 3.78624 8.09307 4.29888 8.23465C4.69067 8.34286 5.51125 8.33418 5.91915 8.21756C7.27889 7.82878 8.22696 6.66474 8.31363 5.2776C8.36576 4.44341 8.10897 3.66452 7.55941 2.98985L7.37564 2.76424L8.05664 2.0902C8.44041 1.71037 8.80968 1.37971 8.90268 1.33258C9.28477 1.13907 9.72866 1.08819 10.1188 1.19316ZM11.1624 8.054C10.664 8.21102 10.3727 8.39175 9.96624 8.79601C9.65709 9.10352 9.56272 9.22723 9.42811 9.50134C9.17973 10.007 9.09451 10.4012 9.11958 10.928C9.13452 11.2415 9.16796 11.4458 9.24234 11.6774C9.50257 12.488 10.0854 13.7193 10.5973 14.5399C10.9192 15.056 11.5512 15.9008 11.6582 15.958C11.9654 16.1224 12.2408 16.069 12.4846 15.7978C13.3033 14.8873 14.4813 12.6846 14.8063 11.4568C14.8954 11.12 14.8938 10.4703 14.803 10.1271C14.7116 9.78198 14.4693 9.29406 14.2556 9.02499C13.8798 8.55186 13.2793 8.16757 12.6762 8.01427C12.2667 7.91016 11.5602 7.9287 11.1624 8.054ZM12.3409 9.73947C12.5304 9.79438 12.8279 10.0115 12.9695 10.1981C13.4161 10.7868 13.2114 11.6569 12.5426 12.012C12.4021 12.0865 12.3141 12.1012 12.0032 12.1016C11.6839 12.102 11.6049 12.0884 11.4412 12.0048C11.198 11.8806 10.933 11.5863 10.8531 11.3518C10.8188 11.2513 10.7908 11.043 10.7908 10.889C10.7908 10.6538 10.8104 10.5698 10.9125 10.3655C11.1689 9.85238 11.7905 9.57995 12.3409 9.73947ZM6.24994 17.7685L12.0141 23.5328L11.8229 23.6734C11.3081 24.052 10.6426 24.1045 10.0856 23.8102C9.91114 23.7181 8.93291 22.7585 5.0367 18.8572C-0.382043 13.4314 0.0384943 13.9001 0.00501728 13.2488C-0.00894453 12.9776 0.0041968 12.8557 0.0703687 12.6426C0.145536 12.4004 0.38535 12.0043 0.456801 12.0043C0.472758 12.0043 3.07967 14.5982 6.24994 17.7685Z" fill="black"/>
</svg>
