<svg width="318" height="159" viewBox="0 0 318 159" fill="none" xmlns="http://www.w3.org/2000/svg">
<g clip-path="url(#clip0_4820_2372)">
<mask id="mask0_4820_2372" style="mask-type:luminance" maskUnits="userSpaceOnUse" x="-19" y="-70" width="337" height="337">
<path d="M317.189 -69.969L-18.8105 -69.969L-18.8105 266.572H317.189V-69.969Z" fill="white"/>
</mask>
<g mask="url(#mask0_4820_2372)">
<path d="M5.08899 192.352C-0.378424 197.828 -9.24271 197.828 -14.71 192.352C-20.1774 186.876 -20.1774 177.997 -14.71 172.521L90.2899 67.352C95.7573 61.8759 104.622 61.8759 110.089 67.352L170.189 127.549L269.391 28.1886L219.189 28.1886C211.457 28.1886 205.189 21.9104 205.189 14.1661C205.189 6.42172 211.457 0.143555 219.189 0.143555L303.18 0.143555C303.194 0.143555 303.217 0.143555 303.231 0.143555C305.114 0.149164 306.909 0.527072 308.549 1.20758C310.199 1.89188 311.746 2.90627 313.089 4.25061C315.652 6.81758 317.013 10.1321 317.174 13.4934C317.184 13.7175 317.189 13.9417 317.189 14.1661C317.189 14.1615 317.189 14.1707 317.189 14.1661V98.3013C317.189 106.046 310.922 112.324 303.189 112.324C295.457 112.324 289.189 106.046 289.189 98.3013V48.0194L180.089 157.295C174.622 162.771 165.757 162.771 160.29 157.295L100.189 97.0981L5.08899 192.352Z" fill="white"/>
</g>
</g>
<defs>
<clipPath id="clip0_4820_2372">
<rect width="317.19" height="159" fill="white"/>
</clipPath>
</defs>
</svg>
