<svg width="21" height="21" viewBox="0 0 21 21" fill="none" xmlns="http://www.w3.org/2000/svg">
<path d="M17.2616 13.5929C18.5467 15.0316 18.8121 15.7209 18.8535 15.8108C19.3842 16.8699 18.2731 16.9498 18.2731 16.9498L16.134 16.9897C16.134 16.9897 15.6696 17.0996 15.0727 16.6001C14.2684 15.9407 13.4973 14.2123 12.9252 14.4421C12.3365 14.6719 12.3531 16.2205 12.3531 16.2205C12.3531 16.2205 12.3531 16.4403 12.2204 16.6101C12.0712 16.7999 11.781 16.73 11.781 16.73H10.8275C10.8275 16.73 8.71317 16.9897 6.86419 14.6619C4.8328 12.1243 3.04186 7.12895 3.04186 7.12895C3.04186 7.12895 2.94237 6.82923 3.05015 6.65938C3.17452 6.49953 3.52276 6.49953 3.52276 6.49953H5.81118C5.81118 6.49953 6.03505 6.49953 6.17601 6.65938C6.30038 6.76928 6.375 6.99907 6.375 6.99907C6.375 6.99907 6.73982 8.10803 7.2373 9.12708C8.19081 11.1152 8.63025 11.5448 8.93704 11.335C9.43452 11.0253 9.29357 8.52764 9.29357 8.52764C9.29357 8.52764 9.30186 7.61849 9.05312 7.21886C8.86241 6.90915 8.49759 6.80924 8.34006 6.78926C8.20739 6.76928 8.42297 6.40962 8.69659 6.23978C9.11116 6 9.83251 6 10.6948 6C11.3664 6 11.5571 6.05994 11.8141 6.12988C12.6101 6.35966 12.3365 7.24883 12.3365 9.36686C12.3365 10.0562 12.2536 10.9953 12.6433 11.325C12.8174 11.4649 13.2486 11.345 14.3264 9.15705C14.8239 8.11802 15.2053 6.88917 15.2053 6.88917C15.2053 6.88917 15.2882 6.67937 15.4126 6.57946C15.5453 6.49953 15.7277 6.49953 15.7277 6.49953H18.1322C18.1322 6.49953 18.8618 6.39963 18.9779 6.78926C19.1023 7.19888 18.7043 8.16798 17.7176 9.73651C16.1091 12.3341 15.9267 12.0943 17.2616 13.5929Z" fill="white"/>
</svg>
