<svg width="556" height="556" viewBox="0 0 556 556" fill="none" xmlns="http://www.w3.org/2000/svg">
<rect width="556" height="556" rx="100" fill="#0C0C0C"/>
<path fill-rule="evenodd" clip-rule="evenodd" d="M251.029 80.8859C249.533 81.3532 246.92 82.529 245.221 83.4989C243.169 84.6709 215.815 111.595 163.681 163.758C78.6827 248.803 82.3067 244.88 80.4824 253.826C79.0344 260.925 80.8948 268.959 85.4073 275.094L87.7272 278.249L182.837 183.134C235.148 130.82 277.947 87.8027 277.947 87.5394C277.947 86.4094 271.484 82.4322 267.716 81.2435C262.951 79.7398 255.224 79.5746 251.029 80.8859ZM309.04 99.6725C307.154 100.18 304.25 101.365 302.587 102.306C300.586 103.437 266.489 137.088 201.718 201.852C89.3288 314.231 99.5231 302.864 99.5231 315.809C99.5231 322.503 99.647 323.183 101.632 327.376C103.427 331.164 105.388 333.493 114.774 342.977L125.807 354.126L130.088 350.582C135.309 346.259 144.211 341.765 151.147 339.95C158.282 338.084 169.74 338.089 176.958 339.962C187.886 342.797 198.672 349.661 205.653 358.224C209.815 363.328 214.316 372.344 216.06 379.066C217.92 386.237 217.92 397.709 216.06 404.88C214.266 411.798 209.774 420.706 205.441 425.94L201.897 430.221L213.045 441.256C222.528 450.643 224.857 452.604 228.645 454.399C232.837 456.384 233.518 456.508 240.211 456.508C253.162 456.508 241.746 466.752 354.458 353.984C442.288 266.109 452.776 255.404 454.395 251.976C456.941 246.586 457.784 241.064 456.873 235.744C455.554 228.043 453.681 225.265 441.496 212.932L430.379 201.68L427.243 204.295C420.581 209.849 413.527 213.53 405.068 215.866C398.604 217.652 385.064 217.508 378.334 215.584C355.898 209.169 340.255 189.961 338.825 167.071C337.965 153.306 342.202 140.453 351.27 129.32L354.302 125.597L343.065 114.475C336.733 108.207 330.64 102.751 329.106 101.973C322.801 98.78 315.477 97.9404 309.04 99.6725ZM291.821 212.885C300.044 215.476 304.851 218.458 311.557 225.129C316.658 230.204 318.215 232.245 320.436 236.768C324.535 245.112 325.941 251.616 325.527 260.31C325.281 265.483 324.729 268.855 323.501 272.676C319.208 286.051 309.59 306.37 301.144 319.912C295.833 328.426 285.405 342.367 283.64 343.311C278.571 346.024 274.027 345.143 270.003 340.668C256.495 325.643 237.058 289.295 231.697 269.035C230.226 263.478 230.253 252.756 231.751 247.094C233.258 241.399 237.257 233.348 240.783 228.908C246.984 221.1 256.892 214.759 266.843 212.23C273.6 210.512 285.257 210.818 291.821 212.885ZM272.375 240.698C269.248 241.604 264.339 245.186 262.003 248.266C254.634 257.98 258.012 272.337 269.048 278.197C271.365 279.427 272.817 279.669 277.947 279.675C283.215 279.682 284.519 279.458 287.22 278.078C291.232 276.029 295.605 271.173 296.924 267.303C297.489 265.645 297.951 262.208 297.951 259.666C297.951 255.785 297.629 254.4 295.944 251.028C291.714 242.561 281.457 238.065 272.375 240.698ZM372.876 373.187L277.768 468.304L280.922 470.624C289.416 476.873 300.397 477.738 309.588 472.883C312.466 471.363 328.607 455.527 392.894 391.151C482.304 301.619 475.365 309.353 475.917 298.606C476.148 294.13 475.931 292.12 474.839 288.603C473.599 284.606 469.642 278.07 468.463 278.07C468.2 278.07 425.186 320.872 372.876 373.187Z" fill="#DEF24A"/>
</svg>
