<svg width="512" height="512" viewBox="0 0 512 512" fill="none" xmlns="http://www.w3.org/2000/svg">
<rect width="512" height="512" rx="107.563" fill="#DEF24A"/>
<path fill-rule="evenodd" clip-rule="evenodd" d="M226.988 43.9783C225.379 44.4809 222.568 45.7457 220.741 46.789C218.533 48.0495 189.11 77.0102 133.033 133.118C41.6065 224.595 45.5046 220.375 43.5424 229.998C41.9848 237.634 43.9859 246.276 48.8397 252.875L51.335 256.268L153.638 153.959C209.905 97.689 255.941 51.4183 255.941 51.135C255.941 49.9196 248.989 45.6415 244.936 44.3629C239.811 42.7455 231.5 42.5678 226.988 43.9783ZM289.386 64.1858C287.357 64.7321 284.233 66.0065 282.445 67.0179C280.292 68.2355 243.617 104.431 173.947 174.094C53.0578 294.971 64.0231 282.744 64.0231 296.669C64.0231 303.869 64.1564 304.601 66.2914 309.11C68.2217 313.185 70.3311 315.69 80.4274 325.892L92.2951 337.883L96.8997 334.071C102.515 329.422 112.091 324.588 119.551 322.636C127.226 320.628 139.55 320.634 147.315 322.648C159.069 325.698 170.671 333.081 178.18 342.292C182.656 347.781 187.498 357.48 189.374 364.71C191.374 372.424 191.374 384.763 189.374 392.476C187.444 399.917 182.612 409.5 177.952 415.129L174.14 419.734L186.13 431.603C196.331 441.7 198.836 443.809 202.911 445.74C207.42 447.875 208.152 448.008 215.351 448.008C229.282 448.008 217.002 459.028 338.239 337.731C432.712 243.209 443.993 231.695 445.734 228.008C448.473 222.211 449.379 216.271 448.399 210.548C446.98 202.265 444.966 199.277 431.859 186.011L419.902 173.908L416.528 176.721C409.363 182.695 401.775 186.654 392.677 189.167C385.723 191.088 371.16 190.934 363.92 188.864C339.788 181.963 322.962 161.302 321.424 136.682C320.498 121.875 325.056 108.051 334.809 96.0758L338.071 92.0712L325.985 80.1075C319.173 73.3659 312.62 67.4969 310.969 66.6604C304.188 63.2258 296.31 62.3227 289.386 64.1858ZM270.864 185.961C279.71 188.748 284.88 191.955 292.093 199.131C297.58 204.589 299.255 206.785 301.644 211.65C306.052 220.625 307.565 227.621 307.12 236.973C306.855 242.537 306.261 246.163 304.941 250.274C300.322 264.66 289.978 286.516 280.893 301.082C275.179 310.24 263.963 325.235 262.064 326.251C256.612 329.169 251.724 328.221 247.397 323.408C232.867 307.246 211.96 268.15 206.193 246.357C204.611 240.379 204.64 228.847 206.251 222.756C207.873 216.631 212.173 207.971 215.967 203.195C222.636 194.797 233.293 187.977 243.997 185.255C251.266 183.408 263.805 183.737 270.864 185.961ZM249.948 215.877C246.585 216.851 241.304 220.704 238.791 224.017C230.865 234.466 234.499 249.909 246.369 256.212C248.861 257.535 250.424 257.795 255.941 257.802C261.608 257.81 263.01 257.568 265.916 256.084C270.231 253.88 274.935 248.657 276.353 244.494C276.961 242.71 277.458 239.014 277.458 236.28C277.458 232.105 277.112 230.615 275.3 226.988C270.749 217.881 259.716 213.045 249.948 215.877ZM358.05 358.387L255.749 460.697L259.142 463.193C268.278 469.914 280.089 470.845 289.975 465.622C293.071 463.987 310.433 446.954 379.582 377.709C475.754 281.405 468.29 289.725 468.884 278.164C469.132 273.35 468.899 271.188 467.724 267.405C466.39 263.106 462.134 256.076 460.866 256.076C460.583 256.076 414.315 302.115 358.05 358.387Z" fill="#0C0C0C"/>
<rect x="196.84" y="163.496" width="118.319" height="164.571" fill="#0C0C0C"/>
</svg>
